<?xml version="1.0" encoding="UTF-8" standalone="no"?>
<!DOCTYPE svg PUBLIC "-//W3C//DTD SVG 1.1//EN" "http://www.w3.org/Graphics/SVG/1.1/DTD/svg11.dtd">
<svg width="100%" height="100%" viewBox="0 0 487 487" version="1.1" xmlns="http://www.w3.org/2000/svg" xmlns:xlink="http://www.w3.org/1999/xlink" xml:space="preserve" xmlns:serif="http://www.serif.com/" style="fill-rule:evenodd;clip-rule:evenodd;stroke-linecap:round;stroke-linejoin:round;stroke-miterlimit:1.5;">
    <g transform="matrix(1,0,0,1,-1.001493,-2.424632)">
        <g transform="matrix(1,0,0,1,-6.25,-6.200187)">
            <g transform="matrix(0.919565,0,0,0.919565,24.751493,26.124819)">
                <path d="M245.5,0L245.5,184.125C245.5,217.999 217.999,245.5 184.125,245.5L0,245.5L0,0L245.5,0Z" style="fill:none;stroke:rgb(255,248,225);stroke-width:38.06px;"/>
            </g>
        </g>
        <g transform="matrix(1,0,0,1,-6.25,-6.200187)">
            <g transform="matrix(0.919565,0,0,0.919565,250.504743,26.124819)">
                <path d="M245.5,0L245.5,184.125C245.5,217.999 217.999,245.5 184.125,245.5L0,245.5L0,0L245.5,0Z" style="fill:none;stroke:rgb(255,248,225);stroke-width:38.06px;"/>
            </g>
        </g>
        <g transform="matrix(1,0,0,1,-6.25,-6.200187)">
            <g transform="matrix(0.919565,0,0,0.919565,24.751493,251.878069)">
                <path d="M245.5,0L245.5,184.125C245.5,217.999 217.999,245.5 184.125,245.5L0,245.5L0,0L245.5,0Z" style="fill:none;stroke:rgb(255,248,225);stroke-width:38.06px;"/>
            </g>
        </g>
        <g transform="matrix(1,0,0,1,-6.25,-6.200187)">
            <g transform="matrix(0.919565,0,0,0.919565,250.504743,251.878069)">
                <path d="M245.5,0L245.5,184.125C245.5,217.999 217.999,245.5 184.125,245.5L0,245.5L0,0L245.5,0Z" style="fill:none;stroke:rgb(255,248,225);stroke-width:38.06px;"/>
            </g>
        </g>
    </g>
</svg>
